<?xml version="1.0" standalone="no"?>
<!DOCTYPE svg PUBLIC "-//W3C//DTD SVG 20010904//EN"
 "http://www.w3.org/TR/2001/REC-SVG-20010904/DTD/svg10.dtd">
<svg version="1.0" xmlns="http://www.w3.org/2000/svg"
 width="285.000000pt" height="81.000000pt" viewBox="0 0 285.000000 81.000000"
 preserveAspectRatio="xMidYMid meet">

<g transform="translate(0.000000,81.000000) scale(0.100000,-0.100000)"
fill="#000000" stroke="none">
<path d="M1114 526 c-16 -12 -20 -29 -22 -111 l-4 -96 103 -104 c66 -67 110
-105 124 -105 12 0 41 21 68 48 65 66 59 77 -7 13 -30 -28 -59 -51 -63 -51 -5
0 -52 44 -106 98 l-98 98 3 100 3 99 104 3 105 3 73 -73 c40 -40 73 -68 73
-62 0 6 -33 43 -74 82 l-74 72 -94 0 c-66 0 -100 -4 -114 -14z"/>
<path d="M1157 473 c-16 -15 -6 -63 14 -73 41 -23 90 35 57 68 -13 13 -60 16
-71 5z m58 -33 c0 -29 -38 -41 -48 -16 -10 26 4 47 27 44 15 -2 21 -10 21 -28z"/>
<path d="M1425 345 c-14 -13 -25 -36 -25 -50 0 -33 42 -75 75 -75 33 0 75 42
75 75 0 33 -42 75 -75 75 -14 0 -37 -11 -50 -25z m65 -65 c0 -10 -5 -22 -10
-25 -13 -8 -24 20 -16 41 8 20 26 9 26 -16z"/>
</g>
</svg>
